<?xml version="1.0" encoding="UTF-8" standalone="no"?>
<!-- Generator: Adobe Illustrator 15.0.2, SVG Export Plug-In . SVG Version: 6.00 Build 0)  -->

<svg
   xmlns:dc="http://purl.org/dc/elements/1.1/"
   xmlns:cc="http://creativecommons.org/ns#"
   xmlns:rdf="http://www.w3.org/1999/02/22-rdf-syntax-ns#"
   xmlns:svg="http://www.w3.org/2000/svg"
   xmlns="http://www.w3.org/2000/svg"
   xmlns:sodipodi="http://sodipodi.sourceforge.net/DTD/sodipodi-0.dtd"
   xmlns:inkscape="http://www.inkscape.org/namespaces/inkscape"
   version="1.1"
   id="Layer_1"
   x="0px"
   y="0px"
   width="512px"
   height="533.342px"
   viewBox="0 0 512 533.342"
   enable-background="new 0 0 512 533.342"
   xml:space="preserve"
   inkscape:version="0.91 r13725"
   sodipodi:docname="add.svg"><metadata
     id="metadata9"><rdf:RDF><cc:Work
         rdf:about=""><dc:format>image/svg+xml</dc:format><dc:type
           rdf:resource="http://purl.org/dc/dcmitype/StillImage" /></cc:Work></rdf:RDF></metadata><defs
     id="defs7" /><sodipodi:namedview
     pagecolor="#ffffff"
     bordercolor="#666666"
     borderopacity="1"
     objecttolerance="10"
     gridtolerance="10"
     guidetolerance="10"
     inkscape:pageopacity="0"
     inkscape:pageshadow="2"
     inkscape:window-width="1280"
     inkscape:window-height="971"
     id="namedview5"
     showgrid="false"
     inkscape:zoom="0.44249283"
     inkscape:cx="256"
     inkscape:cy="266.67099"
     inkscape:window-x="0"
     inkscape:window-y="30"
     inkscape:window-maximized="1"
     inkscape:current-layer="Layer_1" /><path
     d="M106.664,256h64v106.658h106.678v64H170.664v106.684h-64V426.658H0v-64h106.664V256z M256,0  c74.658,0,106.658,42.664,95.895,132.224C361.526,137.737,368,148.112,368,160c0,14.546-9.711,26.822-23,30.717  c-5.539,19.783-14.158,37.296-25,51.31v67.315c35.553,7.105,64,10.658,106.658,32c42.684,21.316,56.895,40.882,85.342,69.316V512  H192v-64h106.658V341.342H192v-99.315v-7.362h-5.276c-8.375-12.604-15.111-27.493-19.73-43.947C153.704,186.822,144,174.546,144,160  c0-11.888,6.48-22.263,16.105-27.776C149.336,42.664,181.336,0,256,0z M0,512v-64h85.336v64H0z"
     fill="#000000"
     id="path3" /></svg>